<svg width="30" height="30" viewBox="0 0 30 30" fill="none" xmlns="http://www.w3.org/2000/svg">
<path d="M22.686 7.31401C22.5467 7.17462 22.3813 7.06404 22.1992 6.9886C22.0172 6.91316 21.8221 6.87433 21.625 6.87433C21.4279 6.87433 21.2328 6.91316 21.0507 6.9886C20.8687 7.06404 20.7033 7.17462 20.564 7.31401L15 12.88L9.43599 7.31501C9.1546 7.03361 8.77294 6.87553 8.37499 6.87553C7.97704 6.87553 7.59539 7.03361 7.31399 7.31501C7.0326 7.5964 6.87451 7.97806 6.87451 8.37601C6.87451 8.77396 7.0326 9.15561 7.31399 9.43701L12.88 15L7.31499 20.564C7.17566 20.7033 7.06514 20.8688 6.98973 21.0508C6.91432 21.2328 6.87551 21.428 6.87551 21.625C6.87551 22.023 7.0336 22.4046 7.31499 22.686C7.59639 22.9674 7.97804 23.1255 8.37599 23.1255C8.77394 23.1255 9.1556 22.9674 9.43699 22.686L15 17.12L20.564 22.685C20.8454 22.9664 21.227 23.1245 21.625 23.1245C22.0229 23.1245 22.4046 22.9664 22.686 22.685C22.9674 22.4036 23.1255 22.022 23.1255 21.624C23.1255 21.2261 22.9674 20.8444 22.686 20.563L17.12 15L22.685 9.43601C22.8244 9.29671 22.935 9.13131 23.0104 8.94926C23.0858 8.7672 23.1247 8.57207 23.1247 8.37501C23.1247 8.17794 23.0858 7.98281 23.0104 7.80076C22.935 7.61871 22.8244 7.45331 22.685 7.31401H22.686Z" fill="black"/>
<path d="M5 0C4.34339 0 3.69321 0.129329 3.08658 0.380602C2.47995 0.631876 1.92876 1.00017 1.46447 1.46447C0.526784 2.40215 0 3.67392 0 5V25C0 26.3261 0.526784 27.5979 1.46447 28.5355C1.92876 28.9998 2.47995 29.3681 3.08658 29.6194C3.69321 29.8707 4.34339 30 5 30H25C26.3261 30 27.5979 29.4732 28.5355 28.5355C29.4732 27.5979 30 26.3261 30 25V5C30 4.34339 29.8707 3.69321 29.6194 3.08658C29.3681 2.47995 28.9998 1.92876 28.5355 1.46447C28.0712 1.00017 27.52 0.631876 26.9134 0.380602C26.3068 0.129329 25.6566 0 25 0H5ZM2 5C2 4.20435 2.31607 3.44129 2.87868 2.87868C3.44129 2.31607 4.20435 2 5 2H25C25.7956 2 26.5587 2.31607 27.1213 2.87868C27.6839 3.44129 28 4.20435 28 5V25C28 25.7956 27.6839 26.5587 27.1213 27.1213C26.5587 27.6839 25.7956 28 25 28H5C4.20435 28 3.44129 27.6839 2.87868 27.1213C2.31607 26.5587 2 25.7956 2 25V5Z" fill="black"/>
</svg>
